# xmcd CD database file
#
# Track frame offsets:
#	182
#	15615
#	28312
#	38552
#	58202
#	81445
#	92845
#	106007
#	122495
#	146080
#
# Disc length: 2151 seconds
#
# Revision: 0
# Processed by: cddbd v1.4PL0 Copyright (c) Steve Scherf et al.
# Submitted via: CDex 1.50Beta5
#
DISCID=8108650a
DTITLE=Jimmy Hamilton - Swing Low Sweet Clarinet
DYEAR=1960
DGENRE=Jazz
TTITLE0=I've Got The World On A String
TTITLE1=Do Nothing 'Til You Hear From Me
TTITLE2=Tempo De Brazilia
TTITLE3=The Nearness Of You
TTITLE4=Blue Room
TTITLE5=Ain't She Sweet
TTITLE6=I Didn't Know About You
TTITLE7=Taj Mahal
TTITLE8=In A Sentimental Mood
TTITLE9=After You've Gone
EXTD=YEAR: 1960
EXTT0=
EXTT1=
EXTT2=
EXTT3=
EXTT4=
EXTT5=
EXTT6=
EXTT7=
EXTT8=
EXTT9=
PLAYORDER=
